<mxfile host="Electron" modified="2023-10-02T09:23:29.262Z" agent="Mozilla/5.0 (Windows NT 10.0; Win64; x64) AppleWebKit/537.36 (KHTML, like Gecko) draw.io/21.8.2 Chrome/114.0.5735.289 Electron/25.8.1 Safari/537.36" etag="_NStxl5d51IQ9Zc7LlfW" version="21.8.2" type="device">
  <diagram id="C5RBs43oDa-KdzZeNtuy" name="Page-1">
    <mxGraphModel dx="1104" dy="516" grid="1" gridSize="10" guides="1" tooltips="1" connect="1" arrows="1" fold="1" page="1" pageScale="1" pageWidth="827" pageHeight="1169" math="0" shadow="0">
      <root>
        <mxCell id="WIyWlLk6GJQsqaUBKTNV-0" />
        <mxCell id="WIyWlLk6GJQsqaUBKTNV-1" parent="WIyWlLk6GJQsqaUBKTNV-0" />
        <mxCell id="Jn1z8ZleqUJkW6Qx4gEC-2" value="" style="edgeStyle=orthogonalEdgeStyle;rounded=0;orthogonalLoop=1;jettySize=auto;html=1;" edge="1" parent="WIyWlLk6GJQsqaUBKTNV-1" source="Jn1z8ZleqUJkW6Qx4gEC-0" target="Jn1z8ZleqUJkW6Qx4gEC-1">
          <mxGeometry relative="1" as="geometry" />
        </mxCell>
        <mxCell id="Jn1z8ZleqUJkW6Qx4gEC-0" value="Start" style="ellipse;whiteSpace=wrap;html=1;" vertex="1" parent="WIyWlLk6GJQsqaUBKTNV-1">
          <mxGeometry x="330" y="40" width="120" height="80" as="geometry" />
        </mxCell>
        <mxCell id="Jn1z8ZleqUJkW6Qx4gEC-4" value="" style="edgeStyle=orthogonalEdgeStyle;rounded=0;orthogonalLoop=1;jettySize=auto;html=1;" edge="1" parent="WIyWlLk6GJQsqaUBKTNV-1" source="Jn1z8ZleqUJkW6Qx4gEC-1" target="Jn1z8ZleqUJkW6Qx4gEC-3">
          <mxGeometry relative="1" as="geometry" />
        </mxCell>
        <mxCell id="Jn1z8ZleqUJkW6Qx4gEC-1" value="String no_rek, input_no_rek, pin, input_pin" style="shape=hexagon;perimeter=hexagonPerimeter2;whiteSpace=wrap;html=1;fixedSize=1;" vertex="1" parent="WIyWlLk6GJQsqaUBKTNV-1">
          <mxGeometry x="290" y="140" width="200" height="90" as="geometry" />
        </mxCell>
        <mxCell id="Jn1z8ZleqUJkW6Qx4gEC-6" value="" style="edgeStyle=orthogonalEdgeStyle;rounded=0;orthogonalLoop=1;jettySize=auto;html=1;" edge="1" parent="WIyWlLk6GJQsqaUBKTNV-1" source="Jn1z8ZleqUJkW6Qx4gEC-3" target="Jn1z8ZleqUJkW6Qx4gEC-5">
          <mxGeometry relative="1" as="geometry" />
        </mxCell>
        <mxCell id="Jn1z8ZleqUJkW6Qx4gEC-3" value="input_no_rek, input_pin" style="shape=parallelogram;perimeter=parallelogramPerimeter;whiteSpace=wrap;html=1;fixedSize=1;" vertex="1" parent="WIyWlLk6GJQsqaUBKTNV-1">
          <mxGeometry x="300" y="260" width="180" height="70" as="geometry" />
        </mxCell>
        <mxCell id="Jn1z8ZleqUJkW6Qx4gEC-8" value="" style="edgeStyle=orthogonalEdgeStyle;rounded=0;orthogonalLoop=1;jettySize=auto;html=1;" edge="1" parent="WIyWlLk6GJQsqaUBKTNV-1" source="Jn1z8ZleqUJkW6Qx4gEC-5" target="Jn1z8ZleqUJkW6Qx4gEC-7">
          <mxGeometry relative="1" as="geometry" />
        </mxCell>
        <mxCell id="Jn1z8ZleqUJkW6Qx4gEC-11" value="" style="edgeStyle=orthogonalEdgeStyle;rounded=0;orthogonalLoop=1;jettySize=auto;html=1;" edge="1" parent="WIyWlLk6GJQsqaUBKTNV-1" source="Jn1z8ZleqUJkW6Qx4gEC-5" target="Jn1z8ZleqUJkW6Qx4gEC-10">
          <mxGeometry relative="1" as="geometry" />
        </mxCell>
        <mxCell id="Jn1z8ZleqUJkW6Qx4gEC-5" value="input_no_rek = no_rek" style="rhombus;whiteSpace=wrap;html=1;" vertex="1" parent="WIyWlLk6GJQsqaUBKTNV-1">
          <mxGeometry x="280" y="360" width="220" height="100" as="geometry" />
        </mxCell>
        <mxCell id="Jn1z8ZleqUJkW6Qx4gEC-13" value="" style="edgeStyle=orthogonalEdgeStyle;rounded=0;orthogonalLoop=1;jettySize=auto;html=1;" edge="1" parent="WIyWlLk6GJQsqaUBKTNV-1" source="Jn1z8ZleqUJkW6Qx4gEC-7" target="Jn1z8ZleqUJkW6Qx4gEC-12">
          <mxGeometry relative="1" as="geometry" />
        </mxCell>
        <mxCell id="Jn1z8ZleqUJkW6Qx4gEC-15" value="" style="edgeStyle=orthogonalEdgeStyle;rounded=0;orthogonalLoop=1;jettySize=auto;html=1;" edge="1" parent="WIyWlLk6GJQsqaUBKTNV-1" source="Jn1z8ZleqUJkW6Qx4gEC-7" target="Jn1z8ZleqUJkW6Qx4gEC-14">
          <mxGeometry relative="1" as="geometry" />
        </mxCell>
        <mxCell id="Jn1z8ZleqUJkW6Qx4gEC-7" value="input_pin = pin" style="rhombus;whiteSpace=wrap;html=1;" vertex="1" parent="WIyWlLk6GJQsqaUBKTNV-1">
          <mxGeometry x="280" y="485" width="220" height="100" as="geometry" />
        </mxCell>
        <mxCell id="Jn1z8ZleqUJkW6Qx4gEC-9" value="True" style="text;html=1;strokeColor=none;fillColor=none;align=center;verticalAlign=middle;whiteSpace=wrap;rounded=0;" vertex="1" parent="WIyWlLk6GJQsqaUBKTNV-1">
          <mxGeometry x="320" y="455" width="60" height="30" as="geometry" />
        </mxCell>
        <mxCell id="Jn1z8ZleqUJkW6Qx4gEC-10" value="Login gagal" style="shape=parallelogram;perimeter=parallelogramPerimeter;whiteSpace=wrap;html=1;fixedSize=1;" vertex="1" parent="WIyWlLk6GJQsqaUBKTNV-1">
          <mxGeometry x="533.5" y="375" width="190" height="70" as="geometry" />
        </mxCell>
        <mxCell id="Jn1z8ZleqUJkW6Qx4gEC-12" value="Password salah, login gagal" style="shape=parallelogram;perimeter=parallelogramPerimeter;whiteSpace=wrap;html=1;fixedSize=1;" vertex="1" parent="WIyWlLk6GJQsqaUBKTNV-1">
          <mxGeometry x="530" y="500" width="197" height="70" as="geometry" />
        </mxCell>
        <mxCell id="Jn1z8ZleqUJkW6Qx4gEC-20" value="" style="edgeStyle=orthogonalEdgeStyle;rounded=0;orthogonalLoop=1;jettySize=auto;html=1;" edge="1" parent="WIyWlLk6GJQsqaUBKTNV-1" source="Jn1z8ZleqUJkW6Qx4gEC-14" target="Jn1z8ZleqUJkW6Qx4gEC-19">
          <mxGeometry relative="1" as="geometry" />
        </mxCell>
        <mxCell id="Jn1z8ZleqUJkW6Qx4gEC-14" value="Login sukses" style="shape=parallelogram;perimeter=parallelogramPerimeter;whiteSpace=wrap;html=1;fixedSize=1;" vertex="1" parent="WIyWlLk6GJQsqaUBKTNV-1">
          <mxGeometry x="295" y="610" width="190" height="70" as="geometry" />
        </mxCell>
        <mxCell id="Jn1z8ZleqUJkW6Qx4gEC-16" value="True" style="text;html=1;strokeColor=none;fillColor=none;align=center;verticalAlign=middle;whiteSpace=wrap;rounded=0;" vertex="1" parent="WIyWlLk6GJQsqaUBKTNV-1">
          <mxGeometry x="320" y="580" width="60" height="30" as="geometry" />
        </mxCell>
        <mxCell id="Jn1z8ZleqUJkW6Qx4gEC-17" value="False" style="text;html=1;strokeColor=none;fillColor=none;align=center;verticalAlign=middle;whiteSpace=wrap;rounded=0;" vertex="1" parent="WIyWlLk6GJQsqaUBKTNV-1">
          <mxGeometry x="480" y="375" width="60" height="30" as="geometry" />
        </mxCell>
        <mxCell id="Jn1z8ZleqUJkW6Qx4gEC-18" value="False" style="text;html=1;strokeColor=none;fillColor=none;align=center;verticalAlign=middle;whiteSpace=wrap;rounded=0;" vertex="1" parent="WIyWlLk6GJQsqaUBKTNV-1">
          <mxGeometry x="480" y="500" width="60" height="30" as="geometry" />
        </mxCell>
        <mxCell id="Jn1z8ZleqUJkW6Qx4gEC-19" value="End" style="ellipse;whiteSpace=wrap;html=1;" vertex="1" parent="WIyWlLk6GJQsqaUBKTNV-1">
          <mxGeometry x="330" y="710" width="120" height="80" as="geometry" />
        </mxCell>
        <mxCell id="Jn1z8ZleqUJkW6Qx4gEC-21" value="" style="endArrow=classic;html=1;rounded=0;entryX=1;entryY=0.5;entryDx=0;entryDy=0;exitX=0.934;exitY=0.6;exitDx=0;exitDy=0;exitPerimeter=0;" edge="1" parent="WIyWlLk6GJQsqaUBKTNV-1" source="Jn1z8ZleqUJkW6Qx4gEC-10" target="Jn1z8ZleqUJkW6Qx4gEC-19">
          <mxGeometry width="50" height="50" relative="1" as="geometry">
            <mxPoint x="710" y="410" as="sourcePoint" />
            <mxPoint x="760" y="360" as="targetPoint" />
            <Array as="points">
              <mxPoint x="810" y="417" />
              <mxPoint x="810" y="750" />
            </Array>
          </mxGeometry>
        </mxCell>
        <mxCell id="Jn1z8ZleqUJkW6Qx4gEC-22" value="" style="endArrow=classic;html=1;rounded=0;exitX=1;exitY=0.5;exitDx=0;exitDy=0;" edge="1" parent="WIyWlLk6GJQsqaUBKTNV-1" source="Jn1z8ZleqUJkW6Qx4gEC-12">
          <mxGeometry width="50" height="50" relative="1" as="geometry">
            <mxPoint x="710" y="550" as="sourcePoint" />
            <mxPoint x="451" y="750" as="targetPoint" />
            <Array as="points">
              <mxPoint x="770" y="535" />
              <mxPoint x="770" y="730" />
              <mxPoint x="450" y="730" />
            </Array>
          </mxGeometry>
        </mxCell>
      </root>
    </mxGraphModel>
  </diagram>
</mxfile>
